Coordinates
version=1
nRows=12
nColumns=34
inDegrees=yes

Units are S.I. units (second, meters, Newtons, ...)
If the header above contains a line with 'inDegrees', this indicates whether rotational values are in degrees (yes) or radians (no).

endheader
time	pelvis_tilt	pelvis_list	pelvis_rotation	pelvis_tx	pelvis_ty	pelvis_tz	hip_flexion_r	hip_adduction_r	hip_rotation_r	knee_angle_r	ankle_angle_r	subtalar_angle_r	mtp_angle_r	hip_flexion_l	hip_adduction_l	hip_rotation_l	knee_angle_l	ankle_angle_l	subtalar_angle_l	mtp_angle_l	lumbar_extension	lumbar_bending	lumbar_rotation	arm_flex_r	arm_add_r	arm_rot_r	elbow_flex_r	pro_sup_r	arm_flex_l	arm_add_l	arm_rot_l	elbow_flex_l	pro_sup_l
      1.80000000	      6.00607731	     -3.06284117	   -176.88035028	      0.16583605	      1.02753249	      0.13403221	     15.33447085	      0.79185982	     -2.58336322	     35.97806127	      6.18419480	    -17.93019488	      0.00000000	     25.04169583	     -0.13504818	      3.69235961	     68.39795313	    -10.38128974	    -34.30262643	      0.00000000	    -13.38650402	      2.36829352	      2.89460431	      5.06971609	    -12.73903795	      2.59386938	     93.40152183	    101.78457156	    -16.84674778	    -24.75509550	      6.18197936	     84.17153519	     96.39214451
      1.80833330	      6.15107563	     -3.00767973	   -176.75523939	      0.16667029	      1.03495600	      0.13486438	     13.66958008	      0.68152509	     -3.03030710	     34.18544147	      5.43160228	    -19.13924266	      0.00000000	     25.57847467	     -0.11142902	      2.91049680	     65.96812513	    -11.08160748	    -35.00000000	      0.00000000	    -13.11811663	      2.38767508	      3.63502364	      5.14847935	    -12.87775933	      2.47693159	     94.72041603	    101.96789437	    -17.82485200	    -24.77487446	      5.39554244	     85.02297680	     96.60858728
      1.81666670	      6.38480029	     -2.97013443	   -176.58264757	      0.16738549	      1.04220641	      0.13568560	     12.16688040	      0.57790345	     -3.43014208	     32.30878424	      4.34047311	    -20.13532145	      0.00000000	     26.15638573	     -0.04087660	      2.06915752	     63.30649749	    -10.89052090	    -35.00000000	      0.00000000	    -12.81272155	      2.39344646	      4.31232247	      5.17469470	    -13.04974419	      2.30836192	     96.08720384	    102.13009243	    -18.69974344	    -24.75156633	      4.53517937	     85.84282253	     96.79505165
      1.82500000	      6.81893235	     -2.91152042	   -176.40058677	      0.16788011	      1.04906828	      0.13668650	     10.96896224	      0.48616058	     -3.81844650	     30.37362308	      3.70019533	    -20.00376591	      0.00000000	     26.81806142	      0.05609025	      1.20999920	     60.43622673	    -11.18678314	    -35.00000000	      0.00000000	    -12.06519593	      2.50179736	      4.94568062	      5.45609180	    -13.18904249	      2.20640398	     96.63315980	    102.16256012	    -19.40744339	    -24.75097105	      4.37402874	     86.02695322	     96.83670575
      1.83333330	      7.13131444	     -2.94689365	   -176.18282811	      0.16830166	      1.05752466	      0.13810919	      9.62474918	      0.35445192	     -4.06743394	     28.17787476	      2.20484938	    -19.97320542	      0.00000000	     27.17415127	      0.36070331	      0.44565564	     57.14715175	    -12.09268785	    -35.00000000	      0.00000000	    -11.78539911	      2.38852444	      5.63248669	      5.65339048	    -13.43576726	      1.88269323	     97.83595574	    102.30396533	    -20.10044521	    -24.39210146	      3.31719215	     86.75611211	     96.95863205
      1.84166670	      7.70024364	     -2.91543798	   -176.06189421	      0.16841277	      1.06480524	      0.13944013	      8.60701418	      0.25626147	     -4.29774706	     26.01038461	      0.86794591	    -18.89096840	      0.00000000	     27.69201449	      0.63374611	     -0.38287944	     53.64854165	    -12.56907777	    -34.36883924	      0.00000000	    -10.94038035	      2.50799017	      6.30714729	      6.05321669	    -13.61000990	      1.76514529	     98.23789660	    102.33526087	    -20.74762954	    -24.25722474	      3.16358015	     86.93586232	     96.99030502
      1.85000000	      8.03973934	     -2.99129833	   -175.98980067	      0.16800718	      1.07195953	      0.14085399	      7.33586735	     -0.00687357	     -4.71124984	     23.90428466	     -0.26370568	    -16.81895399	      0.00000000	     27.82210484	      1.08421860	     -1.23113617	     49.84435999	    -12.16348643	    -31.94515426	      0.00000000	    -10.52386599	      2.36991925	      7.08462385	      6.38539903	    -13.90983601	      1.47411208	     98.79952014	    102.49285299	    -21.44977804	    -23.63818498	      1.96424776	     87.48747443	     97.09306262
      1.85833330	      8.53509264	     -2.93175209	   -175.99368171	      0.16740648	      1.07885680	      0.14224461	      6.21229571	     -0.15012932	     -5.19357919	     21.82953863	     -1.62485613	    -14.52574925	      0.00000000	     28.03704122	      1.38982529	     -2.26998064	     45.70930896	    -11.52122484	    -28.62014776	      0.00000000	     -9.75008954	      2.47236013	      7.73054942	      6.73926926	    -14.22608768	      1.52622709	     99.21540981	    102.63805971	    -22.26660038	    -23.21432755	      1.20419974	     88.02361955	     97.21222497
      1.86666670	      8.97352108	     -2.77498845	   -176.19358195	      0.16661477	      1.08491515	      0.14380677	      5.09861779	     -0.20028455	     -5.45282512	     20.02625842	     -2.73444741	    -12.02130198	      0.00000000	     28.13836431	      1.66570636	     -3.35529393	     41.23563836	    -10.45585955	    -23.75792295	      0.00000000	     -9.09079330	      2.72159697	      8.44176024	      7.14057196	    -14.59985382	      1.62221305	     99.88764524	    102.78016522	    -23.40252073	    -22.48681935	      0.34106479	     88.67602665	     97.34888772
      1.87500000	      9.42323336	     -2.57204140	   -176.46694417	      0.16539586	      1.08978089	      0.14510708	      4.00274128	     -0.19123791	     -5.63513642	     18.36015059	     -3.87178773	     -9.72426668	      0.00000000	     28.12776340	      1.88271080	     -4.58762733	     36.52363820	     -9.61615209	    -18.77689561	      0.00000000	     -8.38120257	      2.96574736	      9.11550187	      7.27275218	    -15.02392049	      1.89196195	    100.84094638	    102.90214526	    -24.64508172	    -21.78976337	     -0.66671173	     89.61484520	     97.48117830
      1.88333330	      9.88307636	     -2.38088135	   -176.78397389	      0.16401600	      1.09379565	      0.14612053	      3.00268055	     -0.18354817	     -5.66070432	     16.94489112	     -4.94094203	     -7.75941666	      0.00000000	     27.99724305	      2.05959981	     -5.86654058	     31.92564421	     -9.43770611	    -14.60969311	      0.00000000	     -7.55894750	      3.07565440	      9.81031149	      7.15218765	    -15.47495918	      2.36087747	    102.17901706	    102.99619658	    -25.88896610	    -21.20201062	     -1.74275919	     90.69893766	     97.57314416
      1.89166670	     10.17074656	     -2.03904501	   -177.08800378	      0.16296447	      1.09721144	      0.14702368	      2.03528308	      0.00321828	     -5.41386850	     15.97775310	     -5.44926363	     -6.05802192	      0.00000000	     27.72257050	      1.96733694	     -7.24127941	     27.85117017	     -9.45516357	    -10.63725492	      0.00000000	     -7.07576801	      3.44154030	     10.21883596	      6.91420179	    -15.86868884	      2.97765253	    103.92578782	    103.10661956	    -27.48552967	    -20.34922410	     -3.05665668	     92.24947094	     97.71845103
